<svg xmlns="http://www.w3.org/2000/svg" viewBox="0 0 800 480" role="img" aria-labelledby="title desc">
  <title id="title">Software development workspace</title>
  <desc id="desc">Code editor and application interface illustration</desc>
  <defs><linearGradient id="bg" x1="0" y1="0" x2="1" y2="1"><stop stop-color="#082f49"/><stop offset="1" stop-color="#0f766e"/></linearGradient><linearGradient id="screen" x1="0" y1="0" x2="1" y2="1"><stop stop-color="#172554"/><stop offset="1" stop-color="#0f172a"/></linearGradient></defs>
  <rect width="800" height="480" fill="url(#bg)"/><circle cx="690" cy="80" r="110" fill="#38bdf8" opacity=".14"/><circle cx="90" cy="420" r="150" fill="#5eead4" opacity=".1"/>
  <rect x="118" y="74" width="564" height="332" rx="18" fill="#e0f2fe" opacity=".96"/><rect x="140" y="106" width="520" height="276" rx="9" fill="url(#screen)"/><circle cx="164" cy="89" r="6" fill="#fb7185"/><circle cx="184" cy="89" r="6" fill="#facc15"/><circle cx="204" cy="89" r="6" fill="#4ade80"/>
  <path d="M190 158h170M190 190h252M190 222h136M190 254h210M190 286h164" stroke="#67e8f9" stroke-width="12" stroke-linecap="round" opacity=".85"/><path d="m492 194 42 42-42 42M470 278l-28 18" fill="none" stroke="#fbbf24" stroke-width="12" stroke-linecap="round" stroke-linejoin="round"/><rect x="560" y="330" width="42" height="18" rx="9" fill="#34d399"/>
</svg>